<svg xmlns="http://www.w3.org/2000/svg" viewBox="0 0 64 64" fill="none" role="img" aria-label="LinkForge">
  <defs>
    <linearGradient id="lf-grad" x1="10" y1="10" x2="54" y2="54" gradientUnits="userSpaceOnUse">
      <stop offset="0%" stop-color="#2563eb"/>
      <stop offset="100%" stop-color="#7c3aed"/>
    </linearGradient>
  </defs>
  <path
    fill="url(#lf-grad)"
    d="M22 14a8 8 0 0 0-8 8v4a8 8 0 0 0 8 8h2v-6h-2a2 2 0 0 1-2-2v-4a2 2 0 0 1 2-2h10a6 6 0 0 0 0-12H22Z"
  />
  <path
    fill="url(#lf-grad)"
    d="M42 26a8 8 0 0 0-8-8h-4a8 8 0 0 0-8 8v10a8 8 0 0 0 8 8h4v6h-4a14 14 0 0 1-14-14V26a14 14 0 0 1 14-14h4a14 14 0 0 1 14 14v4a8 8 0 0 0-8 8h-10Z"
  />
</svg>
